HIERARCHY
ROOT pelvis
{
	OFFSET 0.003123 -0.351407 0.012037
	CHANNELS 6 Xposition Yposition Zposition Zrotation Yrotation Xrotation 
	JOINT left_hip
	{
		OFFSET 0.058189 -0.092763 -0.026001
		CHANNELS 3 Zrotation Yrotation Xrotation
		JOINT left_knee
		{
			OFFSET 0.054695 -0.378753 -0.009396
			CHANNELS 3 Zrotation Yrotation Xrotation
			JOINT left_ankle
			{
				OFFSET -0.043453 -0.403059 -0.031876
				CHANNELS 3 Zrotation Yrotation Xrotation
				JOINT left_foot
				{
					OFFSET 0.047257 -0.057997 0.118216
					CHANNELS 3 Zrotation Yrotation Xrotation
					End Site
					{
						OFFSET 0.000000 0.000000 0.000000
					}
				}
			}
		}
	}
	JOINT right_hip
	{
		OFFSET -0.063267 -0.103908 -0.021250
		CHANNELS 3 Zrotation Yrotation Xrotation
		JOINT right_knee
		{
			OFFSET -0.044210 -0.362380 -0.016824
			CHANNELS 3 Zrotation Yrotation Xrotation
			JOINT right_ankle
			{
				OFFSET 0.015417 -0.410728 -0.020192
				CHANNELS 3 Zrotation Yrotation Xrotation
				JOINT right_foot
				{
					OFFSET -0.038812 -0.058328 0.119049
					CHANNELS 3 Zrotation Yrotation Xrotation
					End Site
					{
						OFFSET 0.000000 0.000000 0.000000
					}
				}
			}
		}
	}
	JOINT spine_1
	{
		OFFSET -0.002763 0.109891 -0.027618
		CHANNELS 3 Zrotation Yrotation Xrotation
		JOINT spine_2
		{
			OFFSET 0.009448 0.131853 -0.005940
			CHANNELS 3 Zrotation Yrotation Xrotation
			JOINT spine_3
			{
				OFFSET -0.011330 0.052235 0.028447
				CHANNELS 3 Zrotation Yrotation Xrotation
				JOINT neck
				{
					OFFSET -0.012164 0.165167 -0.031615
					CHANNELS 3 Zrotation Yrotation Xrotation
					JOINT head
					{
						OFFSET 0.024783 0.160452 0.020737
						CHANNELS 3 Zrotation Yrotation Xrotation
						End Site
						{
							OFFSET 0.000000 0.000000 0.000000
						}
					}
				}
				JOINT left_collar
				{
					OFFSET 0.046364 0.084944 -0.007220
					CHANNELS 3 Zrotation Yrotation Xrotation
					JOINT left_shoulder
					{
						OFFSET 0.119239 0.057728 -0.015461
						CHANNELS 3 Zrotation Yrotation Xrotation
						JOINT left_elbow
						{
							OFFSET 0.254123 -0.072151 -0.042459
							CHANNELS 3 Zrotation Yrotation Xrotation
							JOINT left_wrist
							{
								OFFSET 0.251987 0.023221 -0.002472
								CHANNELS 3 Zrotation Yrotation Xrotation
								JOINT left_index_1
								{
									OFFSET 0.101902 -0.008688 0.019351
									CHANNELS 3 Zrotation Yrotation Xrotation
									JOINT left_index_2
									{
										OFFSET 0.030149 -0.011154 0.001151
										CHANNELS 3 Zrotation Yrotation Xrotation
										JOINT left_index_3
										{
											OFFSET 0.006504 -0.021577 -0.002433
											CHANNELS 3 Zrotation Yrotation Xrotation
											End Site
											{
												OFFSET 0.000000 0.000000 0.000000
											}
										}
									}
								}
								JOINT left_middle_1
								{
									OFFSET 0.109398 -0.006328 -0.003981
									CHANNELS 3 Zrotation Yrotation Xrotation
									JOINT left_middle_2
									{
										OFFSET 0.026472 -0.015218 -0.004641
										CHANNELS 3 Zrotation Yrotation Xrotation
										JOINT left_middle_3
										{
											OFFSET 0.005022 -0.023347 -0.001911
											CHANNELS 3 Zrotation Yrotation Xrotation
											End Site
											{
												OFFSET 0.000000 0.000000 0.000000
											}
										}
									}
								}
								JOINT left_pinky_1
								{
									OFFSET 0.084047 -0.014539 -0.043750
									CHANNELS 3 Zrotation Yrotation Xrotation
									JOINT left_pinky_2
									{
										OFFSET 0.012124 -0.014448 -0.005375
										CHANNELS 3 Zrotation Yrotation Xrotation
										JOINT left_pinky_3
										{
											OFFSET 0.003798 -0.018853 0.000167
											CHANNELS 3 Zrotation Yrotation Xrotation
											End Site
											{
												OFFSET 0.000000 0.000000 0.000000
											}
										}
									}
								}
								JOINT left_ring_1
								{
									OFFSET 0.097444 -0.009268 -0.027345
									CHANNELS 3 Zrotation Yrotation Xrotation
									JOINT left_ring_2
									{
										OFFSET 0.023561 -0.016057 -0.001895
										CHANNELS 3 Zrotation Yrotation Xrotation
										JOINT left_ring_3
										{
											OFFSET 0.004257 -0.023548 0.000814
											CHANNELS 3 Zrotation Yrotation Xrotation
											End Site
											{
												OFFSET 0.000000 0.000000 0.000000
											}
										}
									}
								}
								JOINT left_thumb_1
								{
									OFFSET 0.040636 -0.017977 0.025611
									CHANNELS 3 Zrotation Yrotation Xrotation
									JOINT left_thumb_2
									{
										OFFSET 0.021637 -0.017639 0.011623
										CHANNELS 3 Zrotation Yrotation Xrotation
										JOINT left_thumb_3
										{
											OFFSET 0.024002 -0.008356 0.006548
											CHANNELS 3 Zrotation Yrotation Xrotation
											End Site
											{
												OFFSET 0.000000 0.000000 0.000000
											}
										}
									}
								}
							}
						}
					}
				}
				JOINT right_collar
				{
					OFFSET -0.047695 0.084339 -0.013400
					CHANNELS 3 Zrotation Yrotation Xrotation
					JOINT right_shoulder
					{
						OFFSET -0.102578 0.053524 -0.012669
						CHANNELS 3 Zrotation Yrotation Xrotation
						JOINT right_elbow
						{
							OFFSET -0.271150 -0.036492 -0.026467
							CHANNELS 3 Zrotation Yrotation Xrotation
							JOINT right_wrist
							{
								OFFSET -0.249267 -0.004533 -0.015325
								CHANNELS 3 Zrotation Yrotation Xrotation
								JOINT right_index_1
								{
									OFFSET -0.099881 -0.011783 0.019600
									CHANNELS 3 Zrotation Yrotation Xrotation
									JOINT right_index_2
									{
										OFFSET -0.030148 -0.011154 0.001151
										CHANNELS 3 Zrotation Yrotation Xrotation
										JOINT right_index_3
										{
											OFFSET -0.006505 -0.021577 -0.002432
											CHANNELS 3 Zrotation Yrotation Xrotation
											End Site
											{
												OFFSET 0.000000 0.000000 0.000000
											}
										}
									}
								}
								JOINT right_middle_1
								{
									OFFSET -0.107376 -0.009422 -0.003734
									CHANNELS 3 Zrotation Yrotation Xrotation
									JOINT right_middle_2
									{
										OFFSET -0.026472 -0.015218 -0.004641
										CHANNELS 3 Zrotation Yrotation Xrotation
										JOINT right_middle_3
										{
											OFFSET -0.005022 -0.023347 -0.001911
											CHANNELS 3 Zrotation Yrotation Xrotation
											End Site
											{
												OFFSET 0.000000 0.000000 0.000000
											}
										}
									}
								}
								JOINT right_pinky_1
								{
									OFFSET -0.082027 -0.017634 -0.043503
									CHANNELS 3 Zrotation Yrotation Xrotation
									JOINT right_pinky_2
									{
										OFFSET -0.012123 -0.014448 -0.005374
										CHANNELS 3 Zrotation Yrotation Xrotation
										JOINT right_pinky_3
										{
											OFFSET -0.003798 -0.018852 0.000167
											CHANNELS 3 Zrotation Yrotation Xrotation
											End Site
											{
												OFFSET 0.000000 0.000000 0.000000
											}
										}
									}
								}
								JOINT right_ring_1
								{
									OFFSET -0.095423 -0.012362 -0.027099
									CHANNELS 3 Zrotation Yrotation Xrotation
									JOINT right_ring_2
									{
										OFFSET -0.023561 -0.016057 -0.001895
										CHANNELS 3 Zrotation Yrotation Xrotation
										JOINT right_ring_3
										{
											OFFSET -0.004257 -0.023548 0.000816
											CHANNELS 3 Zrotation Yrotation Xrotation
											End Site
											{
												OFFSET 0.000000 0.000000 0.000000
											}
										}
									}
								}
								JOINT right_thumb_1
								{
									OFFSET -0.038613 -0.021074 0.025861
									CHANNELS 3 Zrotation Yrotation Xrotation
									JOINT right_thumb_2
									{
										OFFSET -0.021636 -0.017639 0.011623
										CHANNELS 3 Zrotation Yrotation Xrotation
										JOINT right_thumb_3
										{
											OFFSET -0.024004 -0.008353 0.006547
											CHANNELS 3 Zrotation Yrotation Xrotation
											End Site
											{
												OFFSET 0.000000 0.000000 0.000000
											}
										}
									}
								}
							}
						}
					}
				}
			}
		}
	}
}
MOTION
Frames: 4
Frame Time: 0.050000
0.000027 0.938361 0.000587 -6.036246 2.706762 0.730830 9.641568 -0.237806 1.607245 -6.782317 0.696870 -4.697570 6.875699 15.736267 5.496533 0.000000 0.000000 0.000000 -4.385225 0.942399 -8.891338 5.237651 -0.322569 4.176125 -0.340771 -5.801202 9.629598 0.000000 0.000000 0.000000 4.896479 -0.146667 3.040149 -8.622931 -1.427786 -21.470904 9.392512 -1.303860 32.784924 10.925910 0.614962 -10.926124 0.000000 0.000000 0.000000 5.209347 -8.853986 4.381027 -78.188805 -22.996261 -4.198405 140.549823 -70.104871 -108.870144 3.317289 0.413075 -21.958851 6.131063 -0.557220 -0.347965 26.709678 -1.431916 -10.278037 0.000000 0.000000 0.000000 5.294227 -5.674160 -2.775980 23.247211 -0.438835 -1.699278 0.000000 0.000000 0.000000 14.458559 -10.751875 -14.065642 11.851773 2.039030 11.207018 0.000000 0.000000 0.000000 4.460470 -4.816234 -3.661522 23.330482 1.763432 -2.140441 0.000000 0.000000 0.000000 20.694429 7.735978 -6.221375 -19.662379 -8.109459 3.246532 0.000000 0.000000 0.000000 -12.399969 -1.797429 0.123870 80.767869 18.178919 2.833093 -127.954863 81.004322 -118.544445 -0.240004 -6.635157 -12.219283 -2.980029 0.536311 -0.255488 -21.035624 1.605151 -6.436308 0.000000 0.000000 0.000000 -3.330402 4.016349 -1.942278 -17.764056 0.447774 0.575186 0.000000 0.000000 0.000000 -12.423890 8.451425 -9.652606 -8.321627 -1.968034 9.595514 0.000000 0.000000 0.000000 -3.318941 3.341606 -2.452904 -18.093131 -1.236808 -1.176031 0.000000 0.000000 0.000000 -12.272442 -5.001909 -3.497035 14.192055 7.410411 1.520285 0.000000 0.000000 0.000000 
0.000851 0.939328 -0.000732 -5.982910 1.583327 0.553059 9.466436 -0.183795 1.756510 -6.821003 0.712128 -4.412306 7.266526 16.554172 5.974471 0.000000 0.000000 0.000000 -4.424250 1.004736 -9.467530 5.154776 -0.306666 5.120841 0.196494 -5.057467 9.695818 0.000000 0.000000 0.000000 4.857701 -0.234369 3.782011 -8.733045 -1.492234 -21.652184 9.549822 -0.687994 32.738033 11.051053 0.583071 -10.845255 0.000000 0.000000 0.000000 5.376699 -8.479390 4.209140 -77.971268 -22.711461 -4.252817 139.828985 -69.649004 -107.566158 3.180953 0.468535 -22.383185 5.894458 0.053380 -0.123676 26.743576 -1.403693 -10.594398 0.000000 0.000000 0.000000 4.773371 -5.117499 -2.489720 23.539402 -0.441335 -1.990686 0.000000 0.000000 0.000000 13.794352 -10.247080 -13.329160 12.712227 1.678495 9.407275 0.000000 0.000000 0.000000 4.613949 -5.121469 -3.917397 23.229893 1.770224 -2.273016 0.000000 0.000000 0.000000 20.415659 8.162518 -5.718070 -19.518508 -8.938579 3.016261 0.000000 0.000000 0.000000 -12.593780 -1.435657 0.306937 82.508697 18.245051 2.975798 -122.922094 80.381630 -112.327737 -0.161248 -6.923938 -12.636194 -2.928309 0.596401 -0.269494 -20.708482 1.611787 -7.160493 0.000000 0.000000 0.000000 -3.142601 4.124469 -2.037115 -17.649979 0.453309 -0.057620 0.000000 0.000000 0.000000 -12.058485 8.761650 -10.425356 -8.269517 -2.118993 10.200010 0.000000 0.000000 0.000000 -3.272905 4.007953 -2.986333 -17.720351 -1.282886 -0.543911 0.000000 0.000000 0.000000 -12.311007 -5.039070 -3.524551 14.183305 7.505166 1.467986 0.000000 0.000000 0.000000 
0.002795 0.939328 0.000587 -5.887254 1.476199 0.722251 9.224949 -0.169695 1.796258 -6.826948 0.723936 -4.611409 7.296347 16.613077 6.003087 0.000000 0.000000 0.000000 -4.850481 0.996144 -9.510958 5.484660 -0.333300 4.802843 0.272496 -5.195994 10.218478 0.000000 0.000000 0.000000 4.591160 -0.210289 3.527838 -8.202108 -1.648073 -21.569703 9.234692 -1.009264 32.488944 10.891852 0.366858 -9.894330 0.000000 0.000000 0.000000 5.302530 -8.019161 3.991669 -78.537240 -21.410372 -4.615549 140.778199 -69.929614 -108.996242 3.173158 0.540737 -22.438821 5.738143 0.164731 -0.082794 26.917845 -1.395521 -10.518033 0.000000 0.000000 0.000000 4.903596 -5.172519 -2.509472 23.368489 -0.423442 -1.917212 0.000000 0.000000 0.000000 14.045041 -10.126672 -13.108225 12.490952 1.697290 9.373057 0.000000 0.000000 0.000000 4.708499 -5.149436 -3.943723 22.490039 1.803332 -0.785454 0.000000 0.000000 0.000000 20.452766 8.050602 -5.836391 -19.592229 -8.730075 3.082885 0.000000 0.000000 0.000000 -12.574899 -1.317272 0.404926 83.757025 18.828909 3.296559 -109.192434 78.858431 -95.836070 -0.089462 -6.839455 -13.389038 -2.638025 0.292250 -0.153446 -21.118235 1.567525 -7.476470 0.000000 0.000000 0.000000 -2.920505 3.756952 -1.843112 -17.848135 0.442907 -0.450468 0.000000 0.000000 0.000000 -11.870675 8.498783 -10.168517 -8.191656 -2.094946 9.883400 0.000000 0.000000 0.000000 -3.114823 3.689737 -2.756306 -17.517387 -1.339675 -0.057093 0.000000 0.000000 0.000000 -12.170853 -4.909809 -3.604887 14.217595 7.363609 1.481046 0.000000 0.000000 0.000000 
0.003913 0.938361 0.000587 -6.016878 1.435533 0.287777 9.113382 -0.125672 2.327802 -6.533705 0.718344 -4.681772 7.463041 16.673199 5.497203 0.000000 0.000000 0.000000 -4.677854 0.956319 -8.983620 5.430794 -0.328065 4.758279 0.098594 -5.310538 9.855951 0.000000 0.000000 0.000000 4.583205 -0.187806 3.372469 -8.306002 -1.528984 -21.257483 9.318831 -1.096217 32.677153 11.201436 0.313672 -9.828531 0.000000 0.000000 0.000000 5.275872 -8.097521 4.019948 -78.956299 -22.153083 -4.221526 138.742594 -69.537072 -106.125711 3.256012 0.548920 -22.188494 5.989932 -0.061691 -0.169144 26.953201 -1.426283 -10.454429 0.000000 0.000000 0.000000 4.996598 -5.379877 -2.626663 23.596207 -0.449177 -1.754586 0.000000 0.000000 0.000000 14.268841 -10.429970 -13.542559 12.557538 1.720115 9.604042 0.000000 0.000000 0.000000 4.829996 -5.383807 -4.121652 23.375431 1.793901 -1.860678 0.000000 0.000000 0.000000 20.424397 8.109475 -5.757109 -18.942561 -9.555785 2.676695 0.000000 0.000000 0.000000 -12.584063 -1.777724 0.230666 81.999461 20.670786 4.281806 -96.212452 76.865524 -80.275430 0.380789 -6.775498 -13.393897 -3.027559 0.397413 -0.194087 -19.759395 1.560109 -7.691947 0.000000 0.000000 0.000000 -2.899597 4.061822 -2.039864 -17.028632 0.348971 0.204157 0.000000 0.000000 0.000000 -10.875803 8.285193 -10.090196 -8.673148 -1.838437 8.725132 0.000000 0.000000 0.000000 -2.941445 4.113929 -3.102838 -17.226932 -1.297085 -0.388681 0.000000 0.000000 0.000000 -12.213314 -4.538229 -3.950921 13.728687 7.547025 1.253107 0.000000 0.000000 0.000000 
